<svg width="254" height="81" viewBox="0 0 254 81" fill="none" xmlns="http://www.w3.org/2000/svg">
<path d="M43.7889 41.3738H37.6328L39.2754 63H42.3891L43.7889 41.3738Z" fill="url(#paint0_linear_85_11554)"/>
<g opacity="0.3" filter="url(#filter0_f_85_11554)">
<path d="M40.1818 23L42.5571 34.6142L51.8689 27.2386L46.1962 37.6569L58.0874 37.971L47.0211 42.3186L55.9277 50.1755L44.6459 46.4181L46.4004 58.1414L40.1818 48.037L33.9633 58.1414L35.7178 46.4181L24.4359 50.1755L33.3425 42.3186L22.2762 37.971L34.1674 37.6569L28.4948 27.2386L37.8065 34.6142L40.1818 23Z" fill="white"/>
</g>
<path d="M40.1818 23L42.5571 34.6142L51.8689 27.2386L46.1962 37.6569L58.0874 37.971L47.0211 42.3186L55.9277 50.1755L44.6459 46.4181L46.4004 58.1414L40.1818 48.037L33.9633 58.1414L35.7178 46.4181L24.4359 50.1755L33.3425 42.3186L22.2762 37.971L34.1674 37.6569L28.4948 27.2386L37.8065 34.6142L40.1818 23Z" fill="white"/>
<path d="M82.2327 54H76.4983V31.4531H82.2327V41.3594H82.3577L90.0295 31.4531H96.1858L88.3264 41.4688L96.6389 54H89.9045L84.1545 45.1875L82.2327 47.625V54ZM103.75 54.4062C98.3902 54.4062 95.0464 51.1562 95.0464 45.4844C95.0464 39.9219 98.4683 36.5781 103.75 36.5781C109.062 36.5781 112.453 39.9062 112.453 45.4844C112.453 51.1719 109.109 54.4062 103.75 54.4062ZM103.75 50.3438C105.64 50.3438 106.843 48.6094 106.843 45.5C106.843 42.4375 105.64 40.6406 103.75 40.6406C101.875 40.6406 100.671 42.4375 100.671 45.5C100.671 48.6094 101.843 50.3438 103.75 50.3438ZM113.313 54V36.9844H118.704V40.2656H118.813C119.485 38.0781 121.345 36.6562 123.673 36.6562C126.204 36.6562 127.923 37.9688 128.407 40.2812H128.516C129.173 38.0938 131.235 36.6562 133.766 36.6562C137.095 36.6562 139.36 39 139.36 42.4531V54H133.813V43.8594C133.813 42.0781 132.985 41.1562 131.423 41.1562C129.923 41.1562 128.985 42.2344 128.985 43.9062V54H123.688V43.7969C123.688 42.0938 122.845 41.1562 121.329 41.1562C119.829 41.1562 118.86 42.2656 118.86 43.9375V54H113.313ZM148.736 40.5156C147.033 40.5156 145.768 41.7812 145.627 43.5469H151.815C151.721 41.7344 150.486 40.5156 148.736 40.5156ZM151.94 48.625H156.94C156.408 52.1406 153.283 54.4062 148.83 54.4062C143.408 54.4062 140.174 51.0781 140.174 45.5781C140.174 40.0781 143.44 36.5781 148.643 36.5781C153.768 36.5781 157.033 39.9375 157.033 45.1406V46.7031H145.549V47.0469C145.549 49.0781 146.908 50.4844 148.908 50.4844C150.393 50.4844 151.549 49.7812 151.94 48.625ZM159.3 33.1719H164.847V36.9844H167.91V41.0625H164.847V48.2031C164.847 49.375 165.472 49.9688 166.8 49.9688C167.238 49.9688 167.566 49.9531 167.894 49.8906V53.8281C167.363 53.9375 166.55 54.0312 165.472 54.0312C161.05 54.0312 159.3 52.6719 159.3 49.3281V41.0625H156.988V36.9844H159.3V33.1719ZM175.864 50.4375C177.551 50.4375 179.02 49.4062 179.02 47.8906V46.7188L175.926 46.9219C174.473 47.0312 173.661 47.7031 173.661 48.7031C173.661 49.7812 174.551 50.4375 175.864 50.4375ZM173.895 54.25C170.739 54.25 168.176 52.1562 168.176 49.0781C168.176 45.8906 170.63 44.1094 175.036 43.8438L179.02 43.6094V42.6406C179.02 41.2812 178.051 40.5312 176.598 40.5312C175.098 40.5312 174.145 41.3125 173.989 42.3594H169.005C169.161 38.875 172.13 36.5781 176.88 36.5781C181.426 36.5781 184.442 38.9062 184.442 42.3281V54H179.051V51.5781H178.942C178.02 53.2969 175.942 54.25 173.895 54.25ZM204.288 54H197.07L189.882 31.4531H196.398L200.741 48.3906H200.866L205.195 31.4531H211.476L204.288 54ZM212.352 31.4531H222.118C226.961 31.4531 230.243 34.5938 230.243 39.4375C230.243 44.25 226.79 47.3906 221.774 47.3906H218.086V54H212.352V31.4531ZM218.086 35.8438V43.0781H220.571C223.008 43.0781 224.446 41.8125 224.446 39.4531C224.446 37.1094 223.008 35.8438 220.602 35.8438H218.086ZM236.947 54H231.51V31.4531H236.088L245.65 44.5625H245.775V31.4531H251.213V54H246.681L237.072 40.7656H236.947V54Z" fill="white"/>
<defs>
<filter id="filter0_f_85_11554" x="0.228148" y="0.952757" width="79.907" height="79.2359" filterUnits="userSpaceOnUse" color-interpolation-filters="sRGB">
<feFlood flood-opacity="0" result="BackgroundImageFix"/>
<feBlend mode="normal" in="SourceGraphic" in2="BackgroundImageFix" result="shape"/>
<feGaussianBlur stdDeviation="11.0236" result="effect1_foregroundBlur_85_11554"/>
</filter>
<linearGradient id="paint0_linear_85_11554" x1="40.7108" y1="41.3738" x2="40.7108" y2="63" gradientUnits="userSpaceOnUse">
<stop stop-color="white"/>
<stop offset="1" stop-color="#999999" stop-opacity="0"/>
</linearGradient>
</defs>
</svg>
