<svg width="227" height="40" viewBox="0 0 227 40" fill="none" xmlns="http://www.w3.org/2000/svg">
<g opacity="0.3" filter="url(#filter0_f_85_11554)">
<path d="M20.0001 7.69575L21.6114 15.5932L27.9283 10.5779L24.0801 17.6622L32.1468 17.8757L24.6397 20.832L30.6817 26.1745L23.0284 23.6195L24.2186 31.5911L20.0001 24.7204L15.7816 31.5911L16.9718 23.6195L9.31847 26.1745L15.3605 20.832L7.8534 17.8757L15.9201 17.6622L12.0719 10.5779L18.3888 15.5932L20.0001 7.69575Z" fill="#3DDC5A"/>
</g>
<g style="mix-blend-mode:color-dodge">
<g filter="url(#filter1_f_85_11554)">
<ellipse cx="19.9985" cy="20" rx="1.96526" ry="18.8665" fill="url(#paint0_radial_85_11554)"/>
</g>
</g>
<g style="mix-blend-mode:color-dodge">
<g filter="url(#filter2_f_85_11554)">
<ellipse cx="19.9993" cy="20" rx="1.96526" ry="18.8665" transform="rotate(-90 19.9993 20)" fill="url(#paint1_radial_85_11554)"/>
</g>
</g>
<path d="M55.8694 31H50.135V8.45312H55.8694V18.3594H55.9944L63.6663 8.45312H69.8225L61.9631 18.4688L70.2756 31H63.5413L57.7913 22.1875L55.8694 24.625V31ZM77.3863 31.4062C72.0269 31.4062 68.6831 28.1562 68.6831 22.4844C68.6831 16.9219 72.105 13.5781 77.3863 13.5781C82.6988 13.5781 86.0894 16.9062 86.0894 22.4844C86.0894 28.1719 82.7456 31.4062 77.3863 31.4062ZM77.3863 27.3438C79.2769 27.3438 80.48 25.6094 80.48 22.5C80.48 19.4375 79.2769 17.6406 77.3863 17.6406C75.5113 17.6406 74.3081 19.4375 74.3081 22.5C74.3081 25.6094 75.48 27.3438 77.3863 27.3438ZM86.95 31V13.9844H92.3406V17.2656H92.45C93.1219 15.0781 94.9813 13.6562 97.3094 13.6562C99.8406 13.6562 101.559 14.9688 102.044 17.2812H102.153C102.809 15.0938 104.872 13.6562 107.403 13.6562C110.731 13.6562 112.997 16 112.997 19.4531V31H107.45V20.8594C107.45 19.0781 106.622 18.1562 105.059 18.1562C103.559 18.1562 102.622 19.2344 102.622 20.9062V31H97.325V20.7969C97.325 19.0938 96.4813 18.1562 94.9656 18.1562C93.4656 18.1562 92.4969 19.2656 92.4969 20.9375V31H86.95ZM122.373 17.5156C120.67 17.5156 119.404 18.7812 119.264 20.5469H125.451C125.358 18.7344 124.123 17.5156 122.373 17.5156ZM125.576 25.625H130.576C130.045 29.1406 126.92 31.4062 122.467 31.4062C117.045 31.4062 113.811 28.0781 113.811 22.5781C113.811 17.0781 117.076 13.5781 122.279 13.5781C127.404 13.5781 130.67 16.9375 130.67 22.1406V23.7031H119.186V24.0469C119.186 26.0781 120.545 27.4844 122.545 27.4844C124.029 27.4844 125.186 26.7812 125.576 25.625ZM132.937 10.1719H138.484V13.9844H141.546V18.0625H138.484V25.2031C138.484 26.375 139.109 26.9688 140.437 26.9688C140.874 26.9688 141.202 26.9531 141.531 26.8906V30.8281C140.999 30.9375 140.187 31.0312 139.109 31.0312C134.687 31.0312 132.937 29.6719 132.937 26.3281V18.0625H130.624V13.9844H132.937V10.1719ZM149.501 27.4375C151.188 27.4375 152.657 26.4062 152.657 24.8906V23.7188L149.563 23.9219C148.11 24.0312 147.298 24.7031 147.298 25.7031C147.298 26.7812 148.188 27.4375 149.501 27.4375ZM147.532 31.25C144.376 31.25 141.813 29.1562 141.813 26.0781C141.813 22.8906 144.266 21.1094 148.673 20.8438L152.657 20.6094V19.6406C152.657 18.2812 151.688 17.5312 150.235 17.5312C148.735 17.5312 147.782 18.3125 147.626 19.3594H142.641C142.798 15.875 145.766 13.5781 150.516 13.5781C155.063 13.5781 158.079 15.9062 158.079 19.3281V31H152.688V28.5781H152.579C151.657 30.2969 149.579 31.25 147.532 31.25ZM177.925 31H170.706L163.519 8.45312H170.034L174.378 25.3906H174.503L178.831 8.45312H185.113L177.925 31ZM185.989 8.45312H195.754C200.598 8.45312 203.879 11.5938 203.879 16.4375C203.879 21.25 200.426 24.3906 195.411 24.3906H191.723V31H185.989V8.45312ZM191.723 12.8438V20.0781H194.207C196.645 20.0781 198.082 18.8125 198.082 16.4531C198.082 14.1094 196.645 12.8438 194.239 12.8438H191.723ZM210.584 31H205.146V8.45312H209.724L219.287 21.5625H219.412V8.45312H224.849V31H220.318L210.709 17.7656H210.584V31Z" fill="white"/>
<defs>
<filter id="filter0_f_85_11554" x="1.89329" y="1.73552" width="36.2134" height="35.8158" filterUnits="userSpaceOnUse" color-interpolation-filters="sRGB">
<feFlood flood-opacity="0" result="BackgroundImageFix"/>
<feBlend mode="normal" in="SourceGraphic" in2="BackgroundImageFix" result="shape"/>
<feGaussianBlur stdDeviation="2.98011" result="effect1_foregroundBlur_85_11554"/>
</filter>
<filter id="filter1_f_85_11554" x="17.9139" y="1.01417" width="4.16832" height="37.9717" filterUnits="userSpaceOnUse" color-interpolation-filters="sRGB">
<feFlood flood-opacity="0" result="BackgroundImageFix"/>
<feBlend mode="normal" in="SourceGraphic" in2="BackgroundImageFix" result="shape"/>
<feGaussianBlur stdDeviation="0.059657" result="effect1_foregroundBlur_85_11554"/>
</filter>
<filter id="filter2_f_85_11554" x="1.0135" y="17.9154" width="37.971" height="4.16915" filterUnits="userSpaceOnUse" color-interpolation-filters="sRGB">
<feFlood flood-opacity="0" result="BackgroundImageFix"/>
<feBlend mode="normal" in="SourceGraphic" in2="BackgroundImageFix" result="shape"/>
<feGaussianBlur stdDeviation="0.059657" result="effect1_foregroundBlur_85_11554"/>
</filter>
<radialGradient id="paint0_radial_85_11554" cx="0" cy="0" r="1" gradientUnits="userSpaceOnUse" gradientTransform="translate(19.9985 20) rotate(90) scale(18.8665 1.96526)">
<stop offset="0.151042" stop-color="#F0FFE4"/>
<stop offset="1" stop-color="#3AFF3A" stop-opacity="0"/>
</radialGradient>
<radialGradient id="paint1_radial_85_11554" cx="0" cy="0" r="1" gradientUnits="userSpaceOnUse" gradientTransform="translate(19.9993 20) rotate(90) scale(18.8665 1.96526)">
<stop offset="0.151042" stop-color="#F0FFE4"/>
<stop offset="1" stop-color="#3AFF3A" stop-opacity="0"/>
</radialGradient>
</defs>
</svg>
